<?xml version="1.0" encoding="UTF-8" standalone="no"?>
<!DOCTYPE svg PUBLIC "-//W3C//DTD SVG 1.1//EN" "http://www.w3.org/Graphics/SVG/1.1/DTD/svg11.dtd">
<svg width="100%" height="100%" viewBox="0 0 3196 620" version="1.1" xmlns="http://www.w3.org/2000/svg" xmlns:xlink="http://www.w3.org/1999/xlink" xml:space="preserve" xmlns:serif="http://www.serif.com/" style="fill-rule:evenodd;clip-rule:evenodd;stroke-linejoin:round;stroke-miterlimit:2;">
    <g transform="matrix(1,0,0,1,-156.004418,-2966.450638)">
        <g id="BLANCO">
            <g transform="matrix(0.357536,0,0,0.357536,1480.466952,3009.407837)">
                <g transform="matrix(198.29007,0,0,198.29007,3917.508116,1613.885594)">
                </g>
                <text x="-2402.441px" y="1613.886px" style="font-family:'Roboto-Bold', 'Roboto';font-weight:700;font-size:198.29px;fill:white;">P<tspan x="-1635.66px -847.482px -50.88px 737.298px 1521.119px 2287.609px 3069.591px 3784.282px " y="1613.886px 1613.886px 1613.886px 1613.886px 1613.886px 1613.886px 1613.886px 1613.886px ">ANADERÍA</tspan></text>
            </g>
            <g transform="matrix(1.48211,0,0,1.48211,-155.42623,1116.1282)">
                <g transform="matrix(320.833333,0,0,320.833333,2065.231259,1613.885594)">
                </g>
                <text x="508.227px" y="1613.886px" style="font-family:'Montserrat-Black', 'Montserrat';font-weight:900;font-size:320.833px;fill:white;">Her<tspan x="1120.377px 1329.881px 1558.315px " y="1613.886px 1613.886px 1613.886px ">enc</tspan>ia</text>
            </g>
            <g transform="matrix(1.48211,0,0,1.48211,349.784015,799.162867)">
                <g transform="matrix(187.5,0,0,187.5,410.886327,1613.885594)">
                </g>
                <g transform="matrix(187.5,0,0,187.5,495.549788,1613.885594)">
                </g>
                <g transform="matrix(187.5,0,0,187.5,656.944019,1613.885594)">
                </g>
                <text x="225.694px" y="1613.886px" style="font-family:'AngelinaMalika-Regular', 'Angelina Malika';font-size:187.5px;fill:white;">Dce</text>
            </g>
            <g transform="matrix(1,0,0,1,0,929.711671)">
                <g transform="matrix(3.404205,0,0,3.404205,-4756.666986,-871.804707)">
                    <path d="M1472.01,996.062C1456.064,996.062 1443.118,983.116 1443.118,967.17C1443.118,951.225 1456.064,938.279 1472.01,938.279C1476.218,938.279 1480.217,939.18 1483.824,940.801C1494.242,943.025 1508.716,946.119 1515.022,947.481C1525.421,949.726 1535.465,949.135 1540.073,949.017C1544.682,948.899 1549.999,946.536 1549.999,946.536L1549.999,987.539L1539.01,985.648C1539.01,985.648 1538.419,985.058 1516.204,985.767C1506.731,986.069 1497.302,987.985 1489.601,990.084C1484.728,993.832 1478.627,996.062 1472.01,996.062ZM1461.375,947.835C1461.375,947.835 1450.504,954.763 1450.386,967.17C1450.267,979.578 1462.084,985.294 1462.084,985.294C1462.084,985.294 1453.812,978.233 1455.349,967.17C1456.885,956.107 1457.83,955.162 1461.375,947.835ZM1567.369,936.137L1567.369,998.292L1560.87,998.292L1555.967,993.388L1555.967,940.745L1560.664,936.048L1567.369,936.137Z" style="fill:white;"/>
                </g>
                <g transform="matrix(-3.404205,0,0,3.404205,8264.541002,-871.804707)">
                    <path d="M1472.01,996.062C1456.064,996.062 1443.118,983.116 1443.118,967.17C1443.118,951.225 1456.064,938.279 1472.01,938.279C1476.218,938.279 1480.217,939.18 1483.824,940.801C1494.242,943.025 1508.716,946.119 1515.022,947.481C1525.421,949.726 1535.465,949.135 1540.073,949.017C1544.682,948.899 1549.999,946.536 1549.999,946.536L1549.999,987.539L1539.01,985.648C1539.01,985.648 1538.419,985.058 1516.204,985.767C1506.731,986.069 1497.302,987.985 1489.601,990.084C1484.728,993.832 1478.627,996.062 1472.01,996.062ZM1461.375,947.835C1461.375,947.835 1450.504,954.763 1450.386,967.17C1450.267,979.578 1462.084,985.294 1462.084,985.294C1462.084,985.294 1453.812,978.233 1455.349,967.17C1456.885,956.107 1457.83,955.162 1461.375,947.835ZM1567.369,936.137L1567.369,998.292L1560.87,998.292L1555.967,993.388L1555.967,940.745L1560.664,936.048L1567.369,936.137Z" style="fill:white;"/>
                </g>
            </g>
        </g>
    </g>
</svg>
